<svg width="184" height="83" viewBox="0 0 184 83" fill="none" xmlns="http://www.w3.org/2000/svg">
<path d="M8.5 64V25.5M8.5 64H3C2 69.5 0.400005 80.7 2 81.5C4 82.5 128.5 82 144 80.5C159.5 79 186.619 70.1464 182.06 58.0732M8.5 64C21.4092 65.3733 45.6344 67.9461 56 69.0331M8.5 25.5V10L12 11C22 25.5 38 33 58.5 21.1858M8.5 25.5C15.2544 32.5614 29.0972 40.9048 46 38.7922M84.3595 21.1858L80.5 19.5C70.1326 30.2661 59.9198 35.8096 50.5 37.9906M84.3595 21.1858L89.7059 23.521M84.3595 21.1858L85.2816 10.1211M84.3595 21.1858L83.5 31.5L89.7059 23.521M89.7059 23.521L96.3512 26.4235M89.7059 23.521L95.6969 15.8183M96.3512 26.4235L101.331 28.5987M96.3512 26.4235L97.2206 16.6437M96.3512 26.4235L95.5 36L101.331 28.5987M101.331 28.5987L107.407 31.2524M101.331 28.5987L106.733 21.7432M107.407 31.2524L112.549 33.4986M107.407 31.2524L108.218 22.5303M107.407 31.2524L106.5 41L112.549 33.4986M112.549 33.4986L124 38.5H142.5M112.549 33.4986L117.49 27.3719M142.5 38.5C139.982 38.5 129.821 33.7148 117.49 27.3719M142.5 38.5C153.302 42.0531 173.532 49.5815 180 54.9461M60.5 69.5C65.5 70 142.5 74 149.5 72.5C156.295 71.044 181.933 64.406 182.06 58.0732M60.5 69.5C59.796 69.4296 58.2142 69.2652 56 69.0331M60.5 69.5C60.6182 67.905 60.5633 66.2248 60.3721 64.5M50.5 37.9906C48.9784 38.3429 47.4775 38.6075 46 38.7922M50.5 37.9906C53.6252 43.1072 59.2686 54.546 60.3721 64.5M182.06 58.0732C182.063 57.8818 182.044 57.6907 182 57.5C181.823 56.7343 181.117 55.8725 180 54.9461M72.5 3C76.1805 5.07393 80.549 7.51134 85.2816 10.1211M72.5 3C69.3333 1.16667 62.1 -0.500001 58.5 7.5V21.1858M72.5 3C68 11.5 67 15.8711 58.5 21.1858M85.2816 10.1211C88.6108 11.9571 92.1202 13.8783 95.6969 15.8183M85.2816 10.1211L85.5 7M95.6969 15.8183C96.2035 16.0931 96.7115 16.3683 97.2206 16.6437M95.6969 15.8183L97.5 13.5L97.2206 16.6437M97.2206 16.6437C100.377 18.3513 103.573 20.0662 106.733 21.7432M106.733 21.7432C107.229 22.0065 107.724 22.269 108.218 22.5303M106.733 21.7432L108.5 19.5L108.218 22.5303M108.218 22.5303C111.384 24.205 114.501 25.8343 117.49 27.3719M117.49 27.3719L119 25.5M46 38.7922C47.2612 40.6317 48.9048 43.368 50.5 46.5956M56 69.0331C56.5808 63.8185 55.1547 57.877 53.0937 52.5M180 54.9461C181.667 56.6308 181.1 61.2 165.5 66M60.3721 64.5C77.5 67.5 115.5 69.6 129.5 70M90 77C89.5 77 75.5 76 73.5 76M68 75C57.5 75 19 71.5 12.5 70.5C9.5 71.5 8.7 73.6 11.5 76C18.6667 76.6667 33.6 78 36 78M40.5 78H47M156 68.5C148 70.5 141 70 137 70M79.3328 33.6C79.1188 33.11 79 32.5689 79 32C79 29.7909 80.7909 28 83 28C85.2091 28 87 29.7909 87 32C87 34.2091 85.2091 36 83 36C82.7459 36 82.4973 35.9763 82.2564 35.931M91.3328 38.6C91.1188 38.11 91 37.5689 91 37C91 34.7909 92.7909 33 95 33C97.2091 33 99 34.7909 99 37C99 39.2091 97.2091 41 95 41C94.7459 41 94.4973 40.9763 94.2564 40.931M103.333 42.6C103.119 42.11 103 41.5689 103 41C103 38.7909 104.791 37 107 37C109.209 37 111 38.7909 111 41C111 43.2091 109.209 45 107 45C106.746 45 106.497 44.9763 106.256 44.931" stroke="black"/>
</svg>
